# xmcd
#
# Track frame offsets:
#	150
#	13082
#	24855
#	47041
#	60108
#	77264
#	93061
#	108506
#	121750
#	135113
#	153655
#	167973
#	180022
#
# Disc length: 2657 seconds
#
# Revision: 6
# Processed by: cddbd v1.5.2PL0 Copyright (c) Steve Scherf et al.
# Submitted via: EZCDAudioConverter 7.1.6.1
#
DISCID=810a5f0d
DTITLE=Colt Ford - Every Chance I Get
DYEAR=2011
DGENRE=Country
TTITLE0=Country Thang Featuring Eric Church
TTITLE1=Work It Out Featuring Luke Bryan
TTITLE2=Waste Some Time Featuring Nappy Roots and Nic Cowan
TTITLE3=Do It With My Eyes Closed Featuring Josh Thompson
TTITLE4=This Is Our Song Featuring Danny Boone Of Rehab
TTITLE5=Titty's Beer Featuring Trent Tomlinson
TTITLE6=She Likes To Ride In Trucks Featuring Craig Morgan
TTITLE7=Pipe The Sunshine In Featuring Tyler Farr
TTITLE8=Every Chance I Get
TTITLE9=What I Call Home Featuring Jb and The Moonshine Band
TTITLE10=Overworked and Underpaid Featuring Charlie Daniels
TTITLE11=Skirts and Boots Featuring Frankie Ballard
TTITLE12=Twisted Featuring Tim Mcgraw
EXTD=
EXTT0=
EXTT1=
EXTT2=
EXTT3=
EXTT4=
EXTT5=
EXTT6=
EXTT7=
EXTT8=
EXTT9=
EXTT10=
EXTT11=
EXTT12=
PLAYORDER=
